<svg viewBox="0, 0, 2048, 1536"
     style="position: relative; min-width: 2048px; min-height: 1536px; grid-area: 1 / 1;"
     xmlns="http://www.w3.org/2000/svg">


	<g id="l______roads">
		<path pen-id="p025"
		      d="M1551.9776 524.90398L1544.8655 517.26949L1541.6403 513.14495L1540.1579 511.41049M0 0M1538.7457 512.60039L1540.1830 514.30612L1543.4747 518.51012L1554.5372 530.38511L1556.3857 532.13168M0 0M1473.9691 475.33705L1473.0357 474.86326L1466.2384 473.81849L1465.9368 473.87269L1462.4368 475.12269L1460.2545 475.96119L1459.9841 476.21977L1457.7341 479.46977L1457.5874 479.81330L1457.5685 480.41607L1457.0685 483.24323L1457.5811 486.40325L1457.7341 486.78039L1459.8956 489.90259L1461.5555 495.73846M0 0M1462.9049 500.10974L1466.1798 506.19177L1469.2928 509.85639M0 0M1470.7075 508.64377L1467.7728 505.22000L1464.3690 498.89858L1464.2446 498.45773M0 0M1461.1426 488.43020L1459.3848 485.89122L1458.9458 483.25703L1459.4168 480.66674L1459.4318 480.29111L1461.3502 477.52007L1466.3415 475.70676L1472.4609 476.64821L1487.0387 484.06065L1494.7055 488.88393L1496.9893 489.64447L1502.9893 491.39447L1511.4478 493.38604L1517.0529 495.91062L1522.0001 495.93174L1522.3461 495.86510L1523.1100 495.55955L1524.6252 496.69598L1531.5550 504.12067L1535.3047 508.48656M0 0M1523.6044 493.61699L1517.0892 488.77734L1510.5169 482.97489L1507.4332 480.92519L1493.7399 473.70540L1489.5578 470.75335L1484.8483 467.03527L1477.6857 460.68662M0 0M719.09520 387.33140L719.17614 386.60297L719.09520 386.09157M0 0M827.59053 454.35731L828.98741 455.27799L830.29025 455.86989M0 0M955.13568 552.73230L949.89603 548.52374L943.21152 544.60222L935.60417 538.67159L932.62535 536.41385L928.95480 534.45325L925.74686 532.22297L918.96035 526.74395L915.86889 524.80380L914.32401 524.07461L913.06263 523.91219L911.80265 523.92714L909.83818 524.67026L910.27510 523.67841L910.30456 523.37348L910.24206 522.46723L910.20201 522.25394L910.11370 522.05569L909.41050 520.90714L909.11557 520.68837L908.05306 520.18836L905.90438 519.61014L903.96174 518.89593L902.58823 517.80749L901.39775 515.36985L900.82442 513.58950L900.18998 512.00824L900.11776 511.63708L898.12583 506.92887L896.90404 503.01914L896.73937 502.19578L896.93678 501.89965L897.74191 501.29581L898.44548 500.94402L902.68855 501.17975L905.83475 501.42176L907.41092 501.87210L908.78857 502.56092L912.28456 504.80706L918.75843 508.54199L924.44524 512.33319L924.58280 512.58173L924.71026 512.71254L928.08957 515.52389L928.34538 515.64732M0 0M948.62669 526.21686L950.51302 527.42203L952.45962 529.30873L955.43775 532.50523L963.28150 540.28647L965.27871 541.93453L965.63293 542.11843L966.39784 542.32437L969.06492 543.35483L972.78178 545.16718L975.82129 546.91720L978.27414 548.55243L979.53635 550.36343L980.86150 554.22107L981.08482 557.07992L981.77232 560.70492L981.84650 560.93187L982.47150 562.24437L982.66526 562.51378L982.94116 562.69819L983.65991 563.01069L984.01251 563.08776L984.19329 563.07377L984.52983 562.94338L984.79157 562.69487L985.33889 561.48597L985.36664 561.18041L985.27952 560.01880L985.45008 558.54057L985.96720 556.44170L985.99425 556.21883L985.99425 554.12131L986.30406 551.66451L986.51234 548.92724L987.46955 546.46170L989.80358 542.31573L990.77459 540.72176L992.83709 536.50301L996.16982 528.67749L997.35931 524.09071L1000.2719 516.20971L998.22792 540.89195L998.24284 541.15154L998.43034 542.08904L998.57338 542.43004L998.69264 542.57254L999.00311 542.77340L999.88824 542.93162L1000.3859 542.77918L1000.6372 542.53603L1000.7242 542.38353L1001.1958 541.32775L1002.7271 536.76525L1008.7880 516.20949L1008.7560 517.90633L1008.7560 522.67687L1008.6322 528.06282L1008.2031 531.92470L1007.8033 534.04634L1007.7911 534.30318L1007.8848 535.33443L1007.9828 535.67351L1008.0780 535.82304L1008.3439 536.05519L1009.1299 536.34816L1009.5213 536.39670L1009.8978 536.27890L1010.6526 535.63187L1010.8686 535.34619L1011.0045 534.85016M0 0M1036.5292 713.01600L1037.1460 714.45514M0 0M1020.1468 723.34418L1019.3039 722.93889L1018.9188 722.84988L1016.5750 722.81863L1016.2462 722.87392L1010.0708 725.10392M0 0M1006.0350 726.56131L1002.7462 727.74892L1001.5322 728.25902M0 0M996.93531 723.85889L996.94936 723.31656M0 0M994.98063 728.04745L994.95948 728.98387L995.10979 729.34363L996.82919 731.82159L995.73896 733.12149L993.56583 734.65717M0 0M985.30096 739.32875L982.99022 740.51038L959.47952 751.96912L947.73700 757.26416L940.04756 760.17871L931.65242 762.63506L921.62884 765.38296L915.18326 767.52379L908.75184 770.98926L881.25124 785.28584L870.20157 790.22117M0 0M865.20696 792.23424L858.92230 794.65008M0 0M854.32886 796.86840L850.68377 798.78825L842.89947 802.32419L836.74322 805.98044L831.59701 809.30585L825.35590 813.14413L822.67977 815.26098L821.93979 816.75505L819.93390 816.17027L816.84967 815.76527L808.85916 814.54797L804.42039 814.32523L801.29539 814.70023L801.03987 814.76872L793.49559 817.99755L786.43881 820.11460L779.02248 824.07106L773.86623 828.44607L771.95673 831.06693L770.26418 834.32617L769.07774 838.28395M0 0M963.36782 838.28395L964.79927 836.75451M0 0M969.37731 831.86308L974.23295 826.67507M0 0M978.05941 822.58672L983.83349 816.41747L990.99743 808.02490L997.90368 798.74366L999.13264 796.87829L999.21002 796.57292L999.33502 794.97917L999.29199 794.61758L999.11362 794.30012L997.80112 792.76887L990.14525 787.08487L988.88051 785.98876L989.31334 785.32168M0 0M1017.5557 770.33852L1023.1378 773.68811L1027.3803 775.66068L1030.6222 776.79344L1034.6222 778.07469L1038.1000 778.36312M0 0M1045.3872 778.16129L1047.3285 778.10381M0 0M1050.1758 778.01951L1053.1867 777.93038L1052.0216 779.20837M0 0M1048.7101 784.40067L1048.2580 785.43355M0 0M1044.8382 793.24723L1043.2222 797.04677L1042.2224 799.70123M0 0M1039.8564 805.15578L1037.7046 808.48581M0 0M1034.8174 812.87375L1034.7393 812.98990M0 0M1032.0400 817.00183L1028.1801 822.73903M0 0M1031.5469 821.04788L1034.5057 816.66190M0 0M1045.9695 795.34218L1046.6726 793.70235M0 0M1048.3263 789.92391L1049.9056 786.31560M0 0M1051.1541 783.46295L1051.3369 783.04526L1053.1763 780.70955M0 0M1058.7215 777.11151L1067.2251 775.60481L1071.3003 774.75101M0 0M1073.2679 774.33878L1077.8303 773.38293M0 0M1077.4639 771.57225L1067.8752 773.56556L1067.7990 773.20791L1067.0641 771.46387L1063.4146 767.55795M0 0M1059.8244 763.45539L1056.8326 759.06749L1048.8758 737.93207L1047.4791 733.94164L1067.5959 729.67443M0 0M1071.5157 728.88006L1076.7393 728.29966L1076.3367 733.95224M0 0M1078.1189 734.97492L1078.6275 728.02459L1078.8795 727.97419M0 0M1081.4168 727.56574L1082.3281 727.47119M0 0M1087.3823 726.55973L1088.8238 726.10926M0 0M1103.4215 727.31646L1103.6640 728.05416M0 0M1105.2003 732.72695L1106.1038 735.47505M0 0M1106.5031 749.77102L1105.8814 750.03747M0 0M1100.6254 752.29008L1096.8832 753.89388L1095.9080 754.51649M0 0M1093.1998 756.17580L1090.5398 756.82722M0 0M1081.5666 759.01024L1080.5589 758.56239L1081.1340 757.52728M0 0M1081.1510 754.65496L1080.9854 753.36104M0 0M1079.2239 751.75942L1079.0319 751.69543M0 0M1078.8912 753.60971L1079.1537 753.69984L1079.5360 756.56739L1078.7020 758.06856L1078.6181 758.06948M0 0M1078.5737 759.92728L1079.0524 759.93160L1081.0450 760.81716M0 0M1083.5181 760.44562L1093.9717 757.90486L1094.2539 757.78365L1097.6885 755.57567L1100.9607 754.17330M0 0M1117.1772 754.92916L1117.3105 755.10165M0 0M1119.9589 758.52902L1120.2734 758.93608L1120.0639 759.15560M0 0M1113.4678 764.50464L1112.4793 764.85766M0 0M1116.3411 765.43087L1116.7574 765.28138L1121.4549 760.39656L1123.1294 762.39511M0 0M1132.0102 776.09302L1132.4830 777.64429L1125.0889 781.74019M0 0M1122.3742 783.24399L1119.0932 785.06152M0 0M1111.4912 779.68932L1111.2911 779.17258M0 0M1109.5679 779.83380L1110.4198 782.05383M0 0M1111.1215 783.88256L1111.1300 783.90452M0 0M1100.1321 780.92599L1099.3532 779.52906L1099.8260 777.03406L1100.1180 776.49270M0 0M1102.5147 769.37723L1101.2993 771.13830M0 0M1098.1585 776.20155L1098.0224 776.54542L1097.4599 779.51417L1097.4569 779.74104M0 0M1100.4329 785.29133L1102.7623 789.46946M0 0M1104.9528 793.39859L1105.0036 793.48960L1103.9255 794.15822M0 0M1093.3786 800.69968L1092.8603 801.02114M0 0M1094.0136 802.49564L1108.4411 793.51716M0 0M1116.5879 788.57906L1133.2961 779.32364L1135.4727 782.56597L1141.4865 789.73673L1127.1860 798.35223L1123.6844 800.34394M0 0M1115.0813 805.23743L1110.5013 807.84256M0 0M1110.3295 816.41080L1110.5788 815.62999L1110.8048 814.02491M0 0M1120.1512 804.48863L1120.6944 804.18026M0 0M1129.2357 799.29200L1142.5396 791.27728M0 0M1145.3220 793.20963L1148.4954 795.87015L1151.6272 798.22839L1151.8707 798.48588M0 0M1157.7774 806.79874L1158.2689 807.57607M0 0M1162.9189 819.14083L1157.6416 823.30262M0 0M1159.2552 824.40266L1161.2571 822.82389M0 0M1163.8197 820.80302L1165.3220 819.61830L1166.2143 819.95075L1166.9194 820.72191L1168.3499 825.44122M0 0M1171.3608 829.01282L1168.5601 819.79005L1167.2710 818.38408L1165.8266 817.81824L1163.3126 812.76333L1159.8439 806.57582L1158.8271 804.98428M0 0M1156.3155 801.05322L1154.6294 798.70350L1152.9270 796.89138L1149.6735 794.42676L1146.7953 792.01370M0 0M1143.2627 788.94545L1136.9342 781.40962L1134.4447 777.69030L1132.7037 771.97848L1132.1427 771.00815M0 0M1129.1893 766.72706L1125.7403 762.61041M0 0M1121.1928 757.07893L1113.7927 747.50232L1112.5435 745.00394M0 0M1108.4730 736.71618L1108.2424 736.01477M0 0M1106.7072 731.34531L1103.8770 722.73683M0 0M1103.2349 720.78350L1102.8805 719.70568L1106.3954 717.84487L1111.4734 715.75003M0 0M1110.9745 713.97637L1107.1522 715.52229L1107.4009 713.78147L1109.0833 710.41668M0 0M1105.3623 714.91765L1105.1450 716.39875L1102.2861 717.91229L1101.6162 715.91427M0 0M1099.5466 710.76011L1096.2239 704.11455M0 0M1084.4795 686.62124L1084.2195 686.25550L1084.6745 682.61563L1084.6594 682.29774L1084.2423 681.28789M0 0M1073.1181 670.88872L1076.0686 674.57686L1076.0686 676.12904L1074.6618 676.71520M0 0M1075.5847 678.33854L1077.2354 677.66123L1079.0268 677.46218L1081.2511 678.87760L1082.7953 682.62794L1082.3964 685.81928L1078.7092 687.17380M0 0M1079.0428 689.00658L1080.4818 688.48879M0 0M1095.7026 707.23811L1097.5408 710.91446M0 0M1100.0252 717.02118L1100.6168 718.79602L1099.0734 719.61315M0 0M1092.5443 722.99468L1085.0629 725.33262L1081.4922 725.68969M0 0M1079.0081 726.05100L1077.6071 726.32871L1072.4579 726.90427M0 0M1066.7914 727.94056L1066.2033 728.06531M0 0M1050.5330 731.38931L1046.8197 732.17701L1043.8482 724.86461L1040.3920 717.26109L1041.3465 716.46571L1041.5913 716.15030L1041.6575 715.96073L1043.4108 708.40806M0 0M1049.0233 703.80900L1049.3660 703.88439M0 0M1050.3131 694.92104L1052.6415 691.83143M0 0M1061.8303 681.34317L1069.4088 674.40880L1069.9194 673.81451M0 0M1061.2430 664.92548L1060.6588 664.34136M0 0M1059.3414 665.65880L1060.1588 666.47619M0 0M1065.4980 671.81535L1067.4028 673.72015L1059.9994 680.50760M0 0M1056.4156 683.79329L1056.2562 683.93942L1045.8789 697.71013M0 0M1042.9035 702.35428L1041.3399 709.08987M0 0M1040.3942 713.16390L1039.9135 715.23471L1039.6140 715.48427L1038.5174 712.92549M0 0M1037.5077 710.56962L1034.8564 704.38313L1029.8296 695.57407L1027.1890 689.81267L1027.4214 683.30374L1033.3172 674.69752L1039.0672 664.19753L1041.5354 658.04515L1044.2701 655.52452L1056.0201 638.27453L1059.8658 630.32579M0 0M1058.4277 629.10131L1054.4417 637.28214L1042.9319 654.17955L1048.6269 638.31483L1048.6783 638.08009L1049.9219 623.65403L1052.5299 613.22215L1053.7203 612.80434L1054.0044 612.54690L1061.2544 602.54690L1061.3630 602.31486M0 0M1094.4936 510.58649L1095.1068 509.60988M0 0M1102.9113 512.17231L1100.4585 515.61411M0 0M1091.9758 530.67600L1091.4547 531.91050M0 0M1082.8450 569.11475L1081.6452 573.14258M0 0M1078.7380 581.72686L1073.9637 591.45918M0 0M1071.3564 599.46696L1070.3592 601.47785L1070.2073 601.97486M0 0M1095.7317 526.38016L1095.8625 525.86887M0 0M1103.5159 514.53079L1104.1864 513.59218L1105.3747 514.54286M0 0M1107.3961 516.15993L1109.5947 517.91879L1111.3367 519.99031M0 0M1112.6131 518.63038L1110.9658 516.65366L1106.8812 513.36921M0 0M1106.3598 505.93483L1106.6800 505.00722M0 0M1118.3781 500.94644L1120.5145 501.23777M0 0M1130.4137 503.81175L1129.2530 503.11533L1130.6768 502.89628M0 0M1138.1763 503.67397L1138.4617 503.71931L1137.8809 505.65536L1137.5382 506.34078L1137.4875 506.37209M0 0M1140.0272 504.98555L1140.3925 503.76779L1140.4283 503.41997L1140.3968 503.24721L1140.1358 502.69445M0 0M1122.4440 499.65917L1122.1260 499.57697L1118.5217 499.08547M0 0M1126.6206 488.52907L1124.6298 488.82615L1120.4455 489.31842L1118.8648 489.31842L1118.0027 489.06511L1119.7322 487.80069L1122.0477 486.64290L1126.1788 485.87824M0 0M1138.6843 481.71719L1138.9938 481.63105M0 0M1135.2096 480.76273L1133.9017 481.12448M0 0M1095.0272 506.23873L1094.7136 506.73896M0 0M1090.4474 508.04267L1090.1818 506.66131L1090.1639 506.31833L1090.0248 505.98249L1089.7677 505.72544L1089.4319 505.58633L1088.9671 505.58633M0 0M1086.3544 507.74476L1085.7249 508.48330L1083.7249 511.48330L1083.5862 511.81928L1083.5903 512.19503L1078.9423 520.28601L1070.1717 540.07010L1066.3532 546.43419L1070.6811 516.71560L1070.4118 509.80815L1069.4118 505.05815L1067.8840 500.45547L1065.8940 496.69635L1065.6972 495.51535L1066.0815 493.59369L1068.7562 492.03227L1073.0062 489.28227L1076.5290 485.76124L1081.8334 477.66673L1089.0726 463.18837L1093.3107 455.70941L1097.4116 443.94290L1100.1369 431.05984L1102.7998 425.73397L1110.5681 414.94622L1116.5681 403.94623L1117.5835 401.91675L1123.1311 389.30336L1128.3811 374.05337M0 0M967.11074 540.60231L966.31460 540.37235L964.55999 538.93020L956.76307 531.19540L953.77352 527.98735L951.78827 526.08705M0 0M929.41264 514.09769L929.01314 513.90158L926.39737 511.69755L926.27429 511.45194L925.76691 510.97491L919.76691 506.97490L913.23509 503.20429L909.75392 500.96640L908.16677 500.16679L906.07158 499.57117L902.80180 499.31986L898.14086 499.07486L897.83348 499.16679L896.83348 499.66679L895.69113 500.50476L895.47494 500.73329L894.97494 501.48329L894.88902 501.64445L894.81847 502.00106L895.11088 503.52797L896.39211 507.61309L898.25239 512.01010L898.31813 512.34820L899.06103 514.19234L899.69423 516.12767L901.00673 518.81517L901.26525 519.13650L903.04433 520.53136L905.30365 521.37450L907.33747 521.91090L908.06367 522.25264L908.39844 522.81646L908.42948 523.26659L908.18703 523.79998L907.53359 524.15640L906.33631 524.45572L905.08221 524.60594L904.72125 524.81192L904.19354 524.44843L901.83446 523.05160L898.72845 521.04183L896.42443 518.93511L893.28107 516.64079L885.44182 511.17979L882.19182 509.42979L879.18817 508.41405L875.30107 505.49880L869.81647 501.50970L867.23441 499.39711L865.35913 495.88096L864.04264 492.01028L862.94539 490.87779L861.83584 489.52556L858.80200 487.98439L857.44893 486.63132L853.02093 480.97331L848.96893 474.15736L847.92444 473.22215M0 0M842.73460 461.65371L841.36516 458.15407L841.17509 457.85787L839.29165 456.49195L839.00608 456.35425L837.11569 455.82560L835.18139 455.58381L832.56750 454.87093L829.95200 453.68207L829.32441 453.26843M0 0M822.80889 448.97407L808.06187 439.25448L806.42783 437.85388L799.73860 429.18202L798.46587 427.65363L798.21958 427.44531L795.19184 425.67976L791.77412 423.85959L788.45661 422.84156L783.02200 421.60642L779.66679 420.33342L776.85301 419.82409L774.60301 419.57409L774.29801 419.59057L771.94234 420.12070L767.01590 421.84495L758.46296 423.31117L755.95489 423.08316L753.38798 422.14974L751.28494 420.98138L749.72899 419.64771L748.86500 418.13572L748.40458 416.52424L747.66114 413.05486L747.14597 411.24412L747.05491 411.03063L743.55491 405.03062L736.43125 397.36436L730.87958 393.30581L728.96256 391.14916L727.02043 388.72150L725.35352 385.86394L724.38402 382.95545L724.25829 382.70854L722.91656 380.84896L722.37820 380.45154M0 0M1040.7606 740.96045L1040.0549 741.32713M0 0M1034.7314 744.09337L1032.8788 745.05608L1023.3788 753.56190L1023.1605 753.85252L1023.0714 754.23618L1015.4981 761.28203L1013.3830 762.84318M0 0M999.13916 771.14091L996.47615 772.65966L994.57137 774.18143L993.12494 776.02431L987.06244 785.36807L981.44454 795.50082L978.01075 801.16194L974.96115 805.15692L971.95734 808.00748L966.27456 813.25312L961.86285 817.87029M0 0M955.75879 825.00025L952.49438 828.93341M0 0M948.30298 833.65649L944.19647 838.28395M0 0M883.36619 838.28395L884.62203 837.36808L886.45376 838.28395M0 0M907.42230 838.28395L911.26753 837.27613L915.97852 834.69229M0 0M919.42863 832.80002L920.96802 831.91635M0 0M924.57223 829.44024L925.70667 828.66088M0 0M930.47067 825.38801L930.62887 825.27933M0 0M931.91951 824.39266L936.53858 821.21938M0 0M940.22987 818.65415L940.42529 818.44571L940.49965 818.23544M0 0M939.75771 814.51155L937.58424 811.10506L945.74303 805.55136L946.83593 804.66705M0 0M950.04732 800.71009L951.32701 798.69034L951.76071 798.12552M0 0M955.81211 793.21713L956.97150 791.93821L961.02940 787.15946M0 0M965.81692 783.95499L974.89936 779.38419L978.60421 777.07333M0 0M983.51191 771.81650L980.37953 773.77028M0 0M972.73914 778.38956L970.34087 779.59554M0 0M965.26170 782.14964L963.05039 783.26162L962.25981 783.75490L958.85540 779.26267M0 0M957.77563 788.07948L955.97761 790.22485M0 0M953.02408 793.52261L952.74179 793.83443M0 0M950.50406 796.70767L949.77577 797.65779L947.98496 800.48424M0 0M938.34224 808.33545L935.76012 810.09422M0 0M922.97173 817.02844L921.80698 817.32596L921.46370 816.37808M0 0M919.31741 810.45175L918.18821 807.33381L919.41774 806.70730M0 0M923.29501 804.38844L923.33783 804.14764L923.32028 803.97617L923.07562 803.36082M0 0M921.42016 799.19723L921.37204 799.07621M0 0M919.68316 794.82857L916.24872 786.48195M0 0M914.63385 782.56857L912.71906 777.92838M0 0M913.07009 770.77870L915.99485 769.20274L922.14440 767.17340L932.15265 764.42970L940.60546 761.95662L948.47680 758.97426L950.34884 758.13002M0 0M953.01958 756.92560L957.96913 754.69352M0 0M967.73132 750.01983L983.81449 742.18120L989.33049 739.36071L994.50921 736.26847L996.91272 734.57333L998.67626 732.51852L999.86991 731.41222L1001.4518 730.29054L1004.1438 729.22508M0 0M910.13216 776.54348L910.26286 776.86021M0 0M911.52483 779.91836L911.54441 779.96582M0 0M913.17389 783.91457L913.48783 784.67535M0 0M915.04908 788.45878L917.69953 794.88174L919.00082 798.14024M0 0M920.65700 802.28744L921.22509 803.70996L916.61094 806.04387L916.31191 806.28342L916.20561 806.44404L916.10196 806.81290L916.15555 807.19227L916.77466 808.90175M0 0M918.07609 812.49525L918.32716 813.18849M0 0M911.97136 819.22535L910.53045 819.49578M0 0M905.14262 820.79488L900.24960 822.00991L896.45448 814.41967M0 0M894.79644 815.26933L898.53853 822.75350L892.70303 826.42077L890.52091 828.97669M0 0M886.96365 832.85256L886.38414 833.48397L883.95451 835.54915L880.20454 838.28395M0 0M860.06058 838.28395L857.63643 833.69034M0 0M855.98882 834.55983L857.95413 838.28395M0 0M833.47165 838.28395L833.24081 835.54680L832.81367 832.80855L829.60770 827.48761M0 0M827.30332 823.83665L824.72754 819.88111L823.49367 817.82467L824.15281 816.44259L826.37645 814.70359L832.58184 810.88728L837.70970 807.57322L843.80660 803.95222L847.72065 802.17742M0 0M852.83349 799.75871L854.01459 799.13568M0 0M862.91742 795.11025L868.57281 792.93632L871.03500 798.44063M0 0M873.44559 803.82959L874.66308 806.55134M0 0M876.88989 811.88080L877.34850 813.04941M0 0M879.04878 817.38197L879.97677 819.74662M0 0M881.71098 819.06604L878.46851 810.80374M0 0M876.67505 806.48890L873.09326 798.48042M0 0M871.00788 793.81776L870.29350 792.22050L882.08604 786.95157L903.17618 775.98753M0 0M771.02183 838.28395L772.02277 834.94749L773.57557 831.99120L775.15830 829.79296L780.15072 825.55697L787.22949 821.80401L794.17913 819.73143L801.65003 816.53401L804.56280 816.18448L808.62420 816.39664L816.57859 817.60844L819.61791 818.00775L821.82507 818.66464L822.55048 819.87299M0 0M824.56047 823.03824L827.11752 826.96441L831.04415 833.44791L831.38698 835.73342L831.60208 838.28395M0 0M889.14155 833.23475L889.80543 832.51141M0 0M892.65398 829.34112L893.92952 827.83782L894.33805 827.58199M0 0M899.15661 824.56455L899.74385 824.19681M0 0M918.91054 819.81854L921.39069 819.35309L927.19941 817.87134L930.82575 815.94344L936.05739 812.17558L938.07226 815.33351M0 0M932.85751 821.48802L932.42638 821.78420M0 0M915.39675 832.90445L910.68311 835.50342L903.53084 837.37801M0 0M896.70538 837.18918L889.36254 836.87119M0 0M949.25547 835.38851L954.32175 829.68094L955.11231 828.71938M0 0M959.19058 823.75896L961.54134 820.89974L963.35115 819.00596M0 0M967.20885 814.96930L967.79248 814.38731M0 0M971.50917 810.95652L976.31770 806.42200M0 0M977.80143 820.13720L963.15746 835.78267M0 0M1045.7250 740.47564L1047.4975 739.55883L1049.0121 743.58214M0 0M1050.8121 748.36313L1051.5231 750.25181M0 0M1053.3733 755.16637L1055.1283 759.82828L1058.4850 764.79806L1057.6697 765.43418M0 0M1053.8281 770.61164L1053.6785 770.90881M0 0M1058.9733 766.77284L1059.6452 766.25603L1060.0250 766.66100M0 0M1063.1657 770.00923L1065.4854 772.48231L1066.0263 773.79589L1066.0404 773.92268L1061.9316 774.65069M0 0M1119.8529 444.76141L1120.2500 445.38603M0 0M1117.4019 436.37402L1116.7095 435.47071M0 0M1115.3704 528.85564L1116.6458 529.20637M0 0M1077.5519 827.26268L1077.7949 829.21154L1077.8346 829.38654L1078.0098 829.69785L1078.1388 829.82262L1078.4557 829.98737L1078.9874 829.98576L1079.8501 829.72602M0 0M1083.4090 828.65452L1086.6433 827.68077M0 0M1086.9505 825.66045L1079.5039 827.88471L1079.2442 825.84615M0 0M1079.0751 823.11350L1079.1770 820.87261L1079.7061 818.47798L1080.5440 817.44281L1085.3173 814.19259M0 0M1092.7567 747.46748L1093.0521 747.36297M0 0M1092.4481 745.63717L1092.3240 745.68015M0 0M1090.8107 746.20411L1087.5802 747.32261L1086.1501 747.36189M0 0M1079.5718 747.54260L1079.3555 747.54854M0 0M1079.1848 749.40153L1079.8265 749.38508M0 0M1089.5330 738.80417L1089.9623 738.55888M0 0M1082.8554 740.47595L1082.2527 740.81855L1080.0905 740.82906M0 0M1088.2159 769.61921L1087.0815 770.17586M0 0M1080.8116 772.75384L1080.2724 772.92162M0 0M1066.1741 639.14462L1066.7865 640.21708M0 0M1067.2258 637.26733L1066.7922 636.50846M0 0M1447.1507 246.31954L1443.3013 250.30500M0 0M902.10414 499.28110L900.25012 496.50008L898.25012 495.75008L894.75012 494.00008L894.23953 493.68096M0 0M890.42001 490.50250L888.75012 489.25008L884.75012 487.00008L881.25012 484.75008L869.25012 477.25008L865.75012 475.00008L863.50012 472.75008L853.75012 465.00008L850.25012 462.50008L848.60372 461.45237M0 0M846.74236 460.56064L846.50012 460.50008L845.50012 460.00008L842.02184 459.80684M0 0M1100.0453 484.87966L1100.0303 484.91965M0 0M1098.6200 488.68028L1098.0132 490.29861M0 0M1117.2710 402.54176L1117.5001 403.00008L1117.7501 403.75008L1117.5001 405.50008L1116.7501 407.75008L1115.2501 411.00008L1112.7501 418.50008L1111.5001 420.00008L1109.2501 423.25008L1108.5001 425.00008L1108.5001 426.25008L1107.2501 428.75008L1107.0001 429.50008L1107.2501 430.00008L1107.7501 429.00008L1108.0001 429.00008L1108.2501 430.75008L1108.2501 432.25008L1108.5001 432.25008L1110.5001 430.00008L1110.7501 430.50008L1110.7501 431.50008L1109.7501 433.00008L1109.2501 434.00008L1109.5001 434.25008L1110.2501 433.75008L1110.5001 434.00008L1109.9589 434.54128M0 0M1111.7520 435.61399L1113.8184 434.02445M0 0M1116.9200 478.66991L1116.7501 478.50008L1116.7501 478.11167M0 0M1129.8712 466.48961L1132.4785 465.39623M0 0M1136.9863 463.50587L1137.0001 463.50008M0 0M1137.0001 468.75008L1133.8610 469.97085M0 0M1124.1138 473.76144L1124.0222 473.79703M0 0M1432.5748 262.53174L1432.0001 263.25008L1431.3007 264.42642M0 0M1426.8438 271.92200L1426.5001 272.50008L1426.3690 272.84970M0 0M1463.3855 476.76248L1464.0001 477.50008L1465.2501 479.25008L1466.5001 481.25008L1468.7501 484.00008L1469.5001 485.25008L1470.2501 487.25008L1471.7501 490.75008L1471.9308 491.08127M0 0M1473.8984 494.68867L1474.7501 496.25008L1476.2501 498.50008L1477.0772 499.44534M0 0M1480.6927 503.19263L1482.0001 504.50008L1484.5001 506.50008L1488.0001 509.00008L1489.7501 509.75008L1490.7501 509.75008L1491.7501 509.50008L1492.2501 509.00008L1492.2501 507.50008L1491.5001 503.00008L1491.5001 501.25008L1491.7501 499.75008L1492.5001 498.25008L1493.7501 497.00008L1495.2501 496.00008L1496.5001 495.00008L1497.0001 494.00008L1497.2501 493.25008L1497.2501 489.72056M0 0M1536.0001 497.09624L1535.7501 496.75008L1532.7501 493.25008L1531.2501 492.25008L1530.2501 490.75008L1528.2501 488.50008L1525.0001 485.50008L1522.2501 483.25008L1518.7501 480.25008L1515.0001 477.75008L1511.0001 475.25008L1508.2501 473.25008L1505.0001 471.00008L1501.5001 469.25008L1499.5001 468.00008L1496.0001 466.50008L1494.7501 465.75008L1493.7501 465.00008L1493.0001 464.00008L1492.0001 463.25008L1491.0001 462.75008L1488.2501 462.25008L1487.0001 461.50008L1480.2310 457.14847M0 0M1475.0543 452.49555L1472.7501 449.50008L1471.5001 447.50008L1469.2501 444.25008L1467.5001 441.50008L1467.2501 440.00008L1466.7501 436.50008L1467.0001 433.75008L1466.7501 431.50008L1467.0001 430.50008L1467.7501 429.25008L1470.2501 425.50008L1470.7501 424.25008L1470.7501 423.75008L1470.2501 422.50008L1467.5001 419.00008L1466.7501 418.75008L1465.5001 418.75008L1464.5001 419.25008L1463.0001 421.25008L1462.2501 421.75008L1461.0001 421.75008L1460.2501 421.00008L1458.7501 417.00008M0 0M966.20238 542.27174L966.59387 543.53133L968.56262 546.93758L973.39656 554.49904M0 0M968.72077 526.37956L967.59387 529.12508L967.53137 533.62508L967.75012 536.81258L967.15637 538.31258L965.48443 539.68054M0 0M1066.4234 616.56694L1066.8530 615.49290M0 0M1067.7201 600.19967L1067.9026 602.02475M0 0M1077.4333 574.29211L1076.8159 575.83570M0 0M1072.5483 577.31314L1068.7501 578.50008L1067.5001 582.75008L1067.5001 587.67152M0 0M1473.3681 515.36782L1473.8545 515.97007M0 0M1478.2428 522.13477L1482.9064 524.81258L1486.7814 532.31258L1489.8439 539.68758L1492.1251 547.34383L1495.6564 557.87508L1499.5001 568.15633L1501.1251 572.90633L1501.7814 579.00008L1501.5626 588.68758L1500.5314 598.43758L1499.1251 608.37508L1499.1876 613.71883M0 0M1556.3857 523.06388L1555.2189 521.96883L1552.0626 518.25008L1547.0626 512.00008M0 0M1029.1186 824.79175L1038.1876 832.31258L1038.3126 832.96883L1037.4064 834.46883L1037.5939 835.06258L1042.5516 838.28395M0 0M1079.6567 837.85680L1079.1876 837.71883L1077.1948 838.28395M0 0M1094.8620 838.28395L1096.2814 838.00008L1099.5626 836.56258L1101.8751 835.96883L1106.1876 836.00008L1108.7501 836.46883L1111.1564 837.93758M0 0M1141.7137 787.12741L1143.0001 786.65633L1144.1876 786.12508L1145.4064 785.21883L1149.6564 781.78133M0 0M1456.0445 432.79375L1455.3857 432.40191L1452.7414 431.19998L1451.6951 430.36292L1450.8560 429.10429L1450.4121 427.55048L1449.9264 424.39336L1449.6791 421.17862L1448.6818 417.85998L1448.6672 417.08548L1446.1752 403.37814L1445.1791 390.42862L1443.1050 379.37963L1439.8550 371.87962L1437.0755 366.56776L1430.0534 355.02779L1424.8225 345.81148L1422.8543 341.87496L1420.8708 336.66839L1418.8933 331.72420L1417.9136 327.31561L1417.4249 324.62777L1417.1856 321.75632L1417.9275 314.08983L1417.9041 313.77410L1417.5835 312.58339L1416.9655 311.40307L1415.8092 310.50468L1415.4485 310.33969L1410.9701 310.31833L1410.1668 309.91670L1410.8415 310.25402L1414.9593 308.45485M0 0M719.09520 381.72763L720.03890 381.45800L720.32748 381.51572L720.97519 381.70852L721.57576 382.15895L722.66053 383.67762L723.69533 386.71954L725.44533 389.71954L727.52258 392.33211L729.55376 394.61907L735.12992 398.70107L741.99787 406.05959L745.38641 411.86850L745.84567 413.47592L746.60428 417.00604L747.19119 418.96233L748.28195 420.84361L750.14379 422.45747L752.54766 423.81453L755.43173 424.87568L758.41577 425.17795L767.40754 423.66838L772.50596 421.89765L774.55111 421.44317L776.61519 421.67251L779.24735 422.15109L782.54364 423.40860L788.00955 424.65085L791.13883 425.61371L794.29441 427.31287L797.13922 428.97234L798.27274 430.33256L805.01470 439.07208L806.98741 440.77800L824.52989 452.34005M0 0M834.73756 457.39417L836.81326 457.66565L838.33950 458.10171L839.73647 459.09955L841.86999 464.55737L844.11032 471.77623L844.27262 472.08209L844.68600 472.59086L845.57483 473.61856L847.52264 475.34995L851.44862 481.97504L856.01644 487.82427L857.70538 489.50588L860.65045 490.99187L861.52262 492.08208L862.43583 493.00334L863.67808 496.68851L865.67808 500.43851L865.91017 500.72114L868.66017 502.97114L874.19514 506.99841L878.19114 509.99540L878.45551 510.13392L881.37923 511.10849L884.32637 512.69541L892.20992 518.16545L895.28364 520.40927L897.65026 522.56351L900.83776 524.62601L903.21518 526.03454L904.31247 526.79655L905.32211 527.32758L905.60100 527.41971L906.75725 527.60721L907.12109 527.59414L908.45220 527.26630L912.13781 525.77547L913.00462 525.77547L913.79785 525.87462L914.92651 526.41208L917.83366 528.22905L924.60240 533.69371L927.93707 536.01501L931.55974 537.94417L934.46359 540.14498L942.11483 546.10982L948.78287 550.01951L953.18236 553.55210M0 0M956.85843 556.47612L958.61597 557.72770L960.26034 558.45107L963.07140 559.28273L967.26277 560.23475L968.34422 559.64951L969.43762 560.03133L970.18762 559.96883L973.60554 558.13483M0 0M957.39587 554.54772L959.61431 556.15124L960.94001 556.71536L963.51800 557.47360L967.67498 558.45291L967.95632 558.55464L973.46887 550.81258L974.18762 549.68758L974.49023 546.15084M0 0M1013.4613 527.53006L1016.3849 518.66693L1018.0295 512.39236L1020.5117 503.25387L1020.5827 504.41199L1021.3327 508.66199L1022.0753 512.19201L1022.2042 512.50091L1022.3944 513.38035L1023.0770 518.39497L1023.2108 518.76001L1023.0864 519.06833L1023.0864 519.43184L1023.2255 519.76767L1023.3142 519.84787L1023.0710 520.80626L1022.8845 523.32489L1022.4435 527.71172L1022.4131 531.85228L1022.6935 538.42619L1022.6935 545.11727L1022.0405 552.89085L1022.0993 558.37125L1021.9158 560.48188L1021.9185 560.67069L1022.0365 561.02743L1022.6303 562.05868L1022.8775 562.33825L1023.2146 562.49836L1023.5875 562.51332L1023.7686 562.46467L1024.0838 562.26490L1026.0369 560.24893L1026.1746 559.86563L1026.6548 556.02398L1027.7658 553.80194L1031.9089 549.65884L1032.0590 549.46230L1034.0590 545.96230L1043.4853 520.93558L1043.5685 521.16421L1043.5872 530.43568L1043.6424 530.61384L1043.8526 530.91986L1043.9990 531.03544L1044.3454 531.16878L1044.5315 531.18119L1044.8926 531.09502L1045.1913 530.87471L1045.3019 530.72448L1051.5064 512.88397L1052.5685 521.80534L1052.5685 530.20295L1050.8233 547.40605L1050.8276 547.62981L1050.8851 547.84608L1051.3851 549.09608L1051.5834 549.40076L1051.8831 549.60638L1052.2388 549.68164L1052.5961 549.61507L1053.9973 549.03797L1054.2457 548.80876L1054.3346 548.66426L1055.8639 543.36805L1065.5553 526.71876L1068.4736 519.04200L1064.0847 549.07171L1058.5952 571.52887L1058.3198 582.68154L1056.8374 594.54103L1050.8516 612.25402L1048.0964 623.27414L1046.8324 637.79936L1039.8790 657.16961L1037.4061 663.35193L1031.7055 673.76173L1025.6467 682.62652L1025.5692 682.96683L1025.3386 689.42125M0 0M1041.4965 724.19317L1041.8803 725.03751L1034.9741 731.72088L1030.6630 730.64309L1029.1373 729.47640L1028.4139 728.92325L1024.5660 725.98070L1024.4108 725.88452L1024.0786 725.79415L1022.3595 724.43742M0 0M996.31246 775.17036L997.46426 774.24084L1000.2791 772.63548L1001.0628 772.18856L1009.6873 767.52942L1010.8309 767.23110L1011.9567 767.40242L1012.9283 767.82991M0 0M1109.6039 809.19347L1109.2842 811.46382L1109.1656 812.30554L1108.7455 815.28862L1108.6219 815.67861M0 0M1094.4786 700.68616L1091.0225 695.82468L1090.7398 695.42708L1089.5426 693.74306M0 0M1083.0962 678.51376L1082.7715 677.72786L1082.5003 677.46416L1079.5616 675.62214L1079.1473 675.57422L1077.9317 675.70928L1077.9317 674.25008L1077.8390 673.84503L1074.2380 669.33615L1074.2343 669.14723L1082.0001 668.50008M0 0M1045.8720 700.81404L1045.6173 701.15203L1046.6777 701.38704L1047.8936 701.65653L1052.4554 702.66755L1053.5490 702.90991L1056.6965 703.60750M0 0M1066.3927 591.57554L1066.4692 591.41215L1067.3333 590.90754L1068.1057 591.36494L1068.1597 591.50899M0 0M1066.6752 589.14847L1065.2879 589.94122L1065.0038 590.19251L1064.0820 592.15985L1064.0629 592.20057L1062.6172 595.28593M0 0M1060.3107 600.20841L1059.6936 601.52539L1053.6040 609.92483L1058.6745 594.86563L1060.1745 582.86563L1060.4292 571.87271L1065.7314 550.18171L1066.1233 550.10369L1066.4340 549.88272L1066.5490 549.72940L1071.7990 540.97940L1080.5822 521.17195L1085.5846 512.46416L1085.7007 512.11969L1085.6973 511.88384L1087.2441 509.56368L1088.5496 508.04061L1089.1467 511.23546L1089.3970 512.57438L1089.6343 513.84412L1089.8386 514.15613L1090.7333 514.77526L1091.0742 514.91496L1091.4425 514.91164L1091.7808 514.76580L1092.0361 514.50026L1092.5673 513.65424M0 0M1082.5805 560.56279L1083.8663 556.70551L1083.7870 556.94327L1083.2501 557.25008L1081.8519 560.51253M0 0M1082.4415 576.97694L1082.4930 576.80305L1082.7195 576.03879L1084.9279 568.58510L1084.8038 567.39827M0 0M1126.6192 373.44680L1121.3817 388.66024L1115.9065 401.10389L1114.9242 403.06853L1108.9602 414.00263L1101.2444 424.70523L1098.4168 430.33342L1098.3386 430.55726L1095.6008 443.49964L1091.6479 454.86424L1087.4168 462.33342L1080.1912 476.78458L1075.0237 484.65894L1071.9111 487.77151L1067.7621 490.45619L1064.7807 492.19534L1064.6223 492.31171L1064.3952 492.62980L1063.8189 495.47102L1064.0811 497.15324L1064.1781 497.43851L1066.1411 501.11921L1067.5994 505.49415L1068.5721 510.11411L1068.7888 515.96581L1067.9098 516.13282L1067.7374 516.22219L1067.4660 516.49693L1063.9061 525.84815L1054.1950 542.53141L1054.1043 542.74414L1052.7488 547.48839L1052.7001 547.36650L1054.4270 530.34411L1054.4318 521.75008L1053.3282 512.42498L1053.3987 512.24615L1053.4245 511.88356L1053.1340 510.95547L1052.9089 510.59131L1052.2678 509.97552L1052.1069 509.88946L1051.7507 509.81843L1051.3944 509.88903L1051.2333 509.97490L1050.3456 510.58713L1050.1456 510.87897L1049.9472 511.69342L1045.4318 524.71832L1045.4176 520.83844L1044.3757 517.93170L1044.1791 517.61213L1044.0367 517.48848L1043.8723 517.39603L1043.5053 517.31845L1043.1373 517.39198L1042.9720 517.48262L1042.7120 517.75321L1032.4043 545.10246L1030.5031 548.42954L1026.3414 552.59132L1026.1669 552.83345L1024.8585 555.48011L1024.3653 559.31735L1023.8418 559.84093L1023.9629 558.39562L1023.9009 553.00254L1024.5568 545.15633L1024.5568 538.40633L1024.2757 531.79628L1024.3064 527.76951L1024.7395 523.50036L1024.9292 520.94390L1024.6859 519.84774L1024.7748 519.76767L1024.9139 519.43184L1024.9139 519.06833L1024.7882 518.75769L1024.9011 518.50648L1024.9233 518.14365L1024.2232 513.02194L1023.9597 511.80319L1023.8349 511.50538L1023.1649 508.32312L1022.4273 504.14291L1022.1506 499.51096L1021.7428 498.68761L1021.4899 498.45757L1021.1711 498.33425L1020.3076 498.33854L1019.9554 498.49429L1019.6963 498.77916L1019.3663 499.70547L1018.8426 502.28713L1016.2679 511.76412L1014.6062 518.11092L1011.6505 527.07160L1010.1544 531.23577L1010.4940 528.14649L1010.6190 522.70899L1010.6193 517.91518L1010.7129 512.98652L1010.6901 512.76340L1010.6147 512.55219L1010.3647 512.05219L1010.1280 511.75328L1009.7914 511.57420L1009.0022 511.51408L1008.8133 511.55969L1008.4837 511.76194L1008.0137 512.40978L1007.8878 512.67412L1000.9552 536.18880L1000.3337 538.04052L1002.1441 515.95373L1002.0191 514.89123L1001.7987 514.10738L1001.6225 513.77916L1001.3318 513.54622L1000.9730 513.44582L999.88498 513.58771L999.56416 513.77655L998.90717 514.63382L998.78250 514.86463L995.59500 523.48963L994.42783 528.01249L991.15247 535.70652L989.12004 539.86376L988.18830 541.38680L985.81330 545.60556L984.72540 548.38166L984.66493 548.64815L984.44795 551.49994L984.13838 553.94559L984.13100 556.10576L983.62680 558.15222L983.45488 559.57710L982.92512 556.78381L982.71031 553.96065L982.66246 553.72867L981.25622 549.63492L981.13943 549.40488L979.70193 547.34238L979.45440 547.09992L976.77748 545.31771L973.62719 543.50645L971.78219 542.60861M0 0M1045.8021 734.78972L1045.3785 733.57945L1042.6564 726.87902L1036.3472 732.98466L1036.6655 733.82708L1036.6816 734.00651L1036.6102 734.35794L1034.4216 737.64573L1024.9073 747.54060L1024.8461 747.72321L1024.6324 748.01725L1021.8235 750.60927L1016.2610 754.95302L1009.2939 759.28441L999.97746 764.42561L993.53491 768.56502L987.23558 771.68964L980.93879 775.61716M0 0M987.67943 769.39504L992.57156 766.96955L999.05006 762.80951L1008.3728 757.66484L1015.1537 753.45387L1020.6463 749.16473L1023.1075 746.88973L1023.2156 746.63784L1023.3286 746.49444L1033.0211 736.41428L1034.7032 733.89108L1034.5621 733.53828L1029.8459 732.33932L1023.9398 727.84726L1023.7468 727.81532L1023.4230 727.65013L1021.1940 725.89091L1018.6917 724.71009L1016.7196 724.68379L1014.8697 725.35183M0 0M908.74985 773.19371L908.71462 773.10834L908.69695 773.11752M0 0M980.09288 801.32131L983.06428 796.42143L987.94442 787.64279L989.00921 788.56187L996.45543 794.06156L997.44749 795.21897L997.37170 796.18530L996.39469 797.65083L994.87627 799.69141L994.58394 800.08427L989.52147 806.88769L982.00525 815.64592M0 0M1033.2964 747.18287L1024.9307 754.67302L1024.8473 755.03172L1024.6346 755.32645L1016.7284 762.68208L1014.0221 764.68705L1012.6207 765.65917L1014.2305 766.37151L1015.7068 767.18401L1018.2925 768.60795L1023.9693 772.02023L1028.0390 773.91736L1031.2022 775.02295L1035.0874 776.26744L1038.8917 776.56700L1044.6601 776.31898L1051.0585 776.12955M0 0M1115.9475 437.87087L1116.0739 437.69391L1114.9749 436.26689L1113.9749 434.76689L1113.8363 434.43153L1113.8184 433.25008L1113.8434 433.03602L1114.3711 431.92489L1114.5699 431.02957M0 0M1077.2235 824.62758L1077.1634 824.14528L1077.3196 820.70778L1077.9343 817.86163L1078.0047 817.65827L1079.1824 816.16399L1079.3821 815.98014L1088.8821 809.51138L1089.2576 809.36179L1090.7766 809.11608L1091.6775 805.56522L1091.8459 805.30691L1092.5173 804.57708M0 0M1093.7162 806.01902L1093.3775 806.39366L1092.4762 809.99894L1093.1471 815.79701L1093.7096 822.48451L1092.8937 823.48909L1093.0314 824.62508L1093.4689 826.25008L1094.2810 826.61924M0 0M1088.6928 748.90473L1087.7740 749.18130L1083.0273 749.30300M0 0M1088.7754 771.40380L1087.0077 772.28690L1083.4293 773.89071L1080.6965 774.71555M0 0M1109.7501 473.40002L1109.7501 472.00008L1110.2579 469.47688L1110.2501 469.50008L1109.2501 469.50008L1107.5001 471.00008L1106.5001 472.50008L1105.5001 474.75008L1104.0001 477.75008L1102.7501 479.25008L1102.0868 480.24513M0 0M1105.2501 338.75008L1106.2501 339.75008L1106.5001 340.75008L1106.5001 343.00008L1106.0001 345.50008L1105.5001 347.75008L1106.0001 349.25008L1106.5001 350.00008L1107.2501 350.00008L1107.7501 349.75008L1108.2501 349.25008L1109.0001 349.00008L1109.7501 349.25008L1110.2501 351.00008L1110.5001 353.25008L1110.5001 355.75008L1110.7501 357.25008L1111.7501 359.25008L1112.5001 360.00008L1113.2501 361.50008L1113.2501 366.00008L1114.0001 369.25008L1114.5001 372.00008L1114.5001 376.50008L1114.7501 378.25008L1115.2501 380.75008L1116.0001 383.50008L1115.7501 387.25008L1115.7501 399.25008L1116.0001 400.25008L1116.1502 400.55018M0 0M1395.5001 323.50008L1399.2501 320.75008L1403.5001 317.50008L1404.2501 316.75008L1405.5001 314.75008L1406.0001 313.75008L1407.7501 312.00008L1408.9625 311.24235L1409.3335 311.58348L1410.3334 312.08346L1410.7501 312.18183L1414.9395 312.18183L1415.5151 312.61351L1415.8710 313.32529L1416.0572 314.07022L1415.3216 321.82746L1415.5834 324.91676L1416.0906 327.70220L1417.1350 332.34612L1419.1322 337.33897L1421.1294 342.58177L1423.1668 346.66676L1428.4542 355.98453L1435.4387 367.45894L1438.1589 372.65202L1441.3534 380.02397L1443.3250 390.62137L1444.3212 403.57154L1445.0837 407.66823L1446.8184 417.33303L1446.8363 418.18185L1447.8291 421.42495L1448.0793 424.64175L1448.5793 427.89175L1449.1545 429.89114L1450.2249 431.51689L1450.4181 431.72761L1451.8646 432.84826L1454.5663 434.07630L1455.6272 434.71285L1456.4714 435.76813L1460.9322 443.94622L1462.9567 447.23837L1467.0633 452.62964L1472.6321 458.69730L1483.6321 468.44729L1488.4228 472.23133L1492.8117 475.32214L1506.5239 482.55231L1509.4304 484.49001L1515.8828 490.19789L1521.0429 494.06843L1517.4519 494.06843L1511.9635 491.59319L1503.4874 489.59881L1497.5280 487.86064L1495.4026 487.15218L1487.9224 482.41961L1481.8015 479.31270M0 0M1457.5872 479.81536L1454.5001 477.50008L1453.2501 473.25008L1452.5001 468.75008L1451.7501 463.50008L1450.2501 457.25008L1448.2501 452.75008L1446.7501 448.50008L1445.5001 443.75008L1444.7501 436.25008L1445.2501 428.25008L1445.5001 421.75008L1446.0001 419.00008L1446.8347 418.16548M0 0M719.09520 526.45360L721.75012 527.75008L726.75012 531.00008L732.50012 536.25008L733.75012 537.00008L734.75012 537.75008L737.50012 538.50008L740.50012 539.00008L746.25012 539.75008L748.25012 539.75008L750.00012 539.50008L751.50012 539.00008L752.75012 538.50008L757.00012 535.25008L759.25012 533.25008L768.00012 528.42249L768.00012 528.31040L773.75012 525.15633L777.15637 523.46883L779.31262 522.62508L781.50012 521.96883L783.75012 521.68758L786.25012 521.87508L788.50012 522.37508L791.37512 523.37508L795.03137 524.81258L798.25012 526.53133L801.00012 528.34383L803.68762 530.59383L808.00012 534.71883L809.00012 536.00008L809.75012 537.31258L810.59387 539.18758L811.28137 541.56258L812.09387 545.15633L812.59387 548.81258L812.81262 552.68758L812.68762 554.96883L812.25012 558.59383L811.68762 562.62508L811.06262 565.43758M0 0M973.97347 513.00972L973.80833 512.00008L973.83836 512.00008L973.00012 507.25008L969.50012 498.50008L969.25012 493.25008L970.00012 492.00008L973.00012 489.50008L983.75012 482.00008L988.00012 481.25008L1000.0001 478.50008L1002.0001 477.50008L1003.5001 475.50008L1005.0001 474.50008L1007.0001 474.50008L1008.2501 475.75008L1011.0001 478.25008L1016.2501 480.50008L1018.2501 480.75008L1021.7501 479.75008L1024.0001 479.03417L1024.0001 479.03417L1027.2501 478.00008L1035.0001 475.75008L1040.0001 474.50008L1042.0001 473.50008L1044.5001 470.75008L1047.2501 466.75008L1049.7501 461.75008L1053.0001 454.25008L1054.7501 449.75008L1061.0001 436.50008L1066.0001 422.50008L1074.0001 408.25008L1079.0001 399.50008L1080.2501 396.50008L1088.5001 380.75008L1095.0001 369.00008L1096.5001 364.50008L1097.2501 363.00008L1100.2501 360.00008L1101.0001 358.00008L1101.2501 354.75008L1101.2501 351.25008L1101.5001 348.25008L1102.7501 344.50008L1105.2501 338.75008L1108.7501 331.25008L1109.2501 328.75008L1109.2501 326.75008L1108.7501 321.25008L1108.7501 312.75008L1109.0001 306.00008L1109.5001 301.25008L1110.0001 297.50008L1110.0001 292.00008L1109.5001 274.00008L1108.5001 260.75008L1108.0001 258.50008L1106.3335 256.00008L1106.2879 256.00008L1102.0939 249.40633L1100.3439 247.53133L1098.9705 246.31954M0 0M991.78137 528.37508L989.21887 530.03133L987.40637 530.62508L987.18762 530.84383L985.59387 533.12508L984.37512 534.68758L982.68762 535.96883L981.25012 536.59383L978.34387 538.06258L977.34387 538.53133L976.12512 538.31258L975.43762 537.31258L975.42584 537.21240L975.43762 537.31258L975.18762 538.00008L974.66556 544.10176M0 0M1482.9064 524.81258L1485.5939 526.28133L1488.2814 528.68758L1489.9376 530.71883L1491.7189 533.09383L1495.8126 540.34383L1497.6876 544.53133L1500.9689 552.21883L1502.9064 557.21883L1504.2814 561.09383L1505.7501 567.46883L1506.8126 571.46883L1508.1876 575.59383L1509.9689 579.06258L1513.2501 583.43758L1516.9064 588.00008L1520.0626 591.18758L1524.2189 594.53133L1527.9064 597.21883L1531.2189 600.75008L1534.0001 604.12508L1536.0001 606.43017L1536.0001 606.43017L1537.6876 608.37508L1540.6564 611.93758L1543.1564 614.59383L1545.5626 616.59383L1548.2814 617.59383L1549.4689 617.62508L1551.1251 617.21883L1553.5001 615.81258L1556.3857 613.93178M0 0M1114.9653 821.06895L1118.1876 821.75008L1120.9689 822.18758L1125.0314 822.40633L1135.0314 821.75008L1140.9689 821.56258L1143.9376 821.65633L1146.6876 822.12508L1149.1876 822.75008L1152.8751 824.09383L1153.7716 824.54207L1154.1150 824.16902L1153.9226 824.46767L1137.3305 831.28369M0 0M1098.8744 502.30527L1098.4813 502.09758L1098.1184 502.07779L1097.7455 502.22796L1097.1486 501.45796L1095.7501 499.50008L1095.2501 499.25008L1094.7501 499.75008L1094.5001 500.50008L1094.2343 500.76590L1092.8351 501.43697L1092.0001 501.75008L1091.5001 501.75008L1091.2501 501.50008L1091.5001 501.00008L1093.0001 500.75008L1094.0001 500.25008L1096.2501 495.00008L1096.5397 494.22776M0 0M1137.5096 833.22417L1154.8535 826.11192L1155.2453 825.80897L1155.7252 825.08350L1155.5708 825.34923L1156.0314 825.53133L1156.5314 825.87508L1156.7163 825.62857L1156.5314 825.87508L1159.0626 827.65633L1161.5939 830.31258L1164.7189 833.96883L1167.5887 838.28395M0 0"
		      style="stroke: rgb(0, 0, 0); stroke-width: 0.75; stroke-linecap: round; stroke-linejoin: round; fill: none; visibility: visible;"/>
		<path pen-id="p035"
		      d="M1069.9204 673.81614L1072.9232 678.62061L1074.1983 681.02904M0 0M1076.6728 690.38596L1077.4950 699.52153M0 0M1077.9776 704.88438L1077.9894 705.01490M0 0M1078.6386 712.22873L1078.7050 712.96609M0 0M1078.8253 715.40360L1079.0081 720.52225L1079.0081 721.93167M0 0M1079.0081 723.99446L1079.0081 726.04851M0 0M1078.8795 727.97419L1078.1728 735.04062M0 0M1076.9471 746.69718L1076.7657 748.36292L1076.2618 755.40482L1076.2581 756.92276L1076.0177 758.84603L1076.0124 759.10323L1076.7624 768.10323L1076.8063 768.34271L1076.9264 768.61595L1077.4611 771.55684M0 0M1077.8310 773.38282L1078.6522 776.75627L1079.8084 780.69377L1081.2241 784.37282L1083.6303 790.31032L1084.9779 793.07637L1086.1226 795.20159L1087.6226 797.70158L1088.9816 799.85138L1091.3319 803.15763L1092.5134 804.58136M0 0M1093.7139 806.02806L1096.1365 808.94754L1097.6493 810.59175L1098.6723 811.57935M0 0M1102.8427 815.11423L1104.2739 816.14936L1107.2114 817.77436L1111.3460 819.58074L1114.4342 820.62828L1117.6670 821.31825L1120.9398 821.86560L1125.5549 822.08461L1129.8441 821.89475L1136.8324 821.36439L1140.6154 821.14910L1143.3212 821.20923L1145.6403 821.47681L1148.4118 822.07931L1150.6544 822.73715L1154.1170 824.16602M0 0M1155.7438 825.08077L1156.7969 825.67295L1158.3843 826.84880L1159.7594 828.01463L1161.6633 829.85805L1162.7628 831.10617L1164.8479 833.77381L1167.3403 837.28161L1167.9622 838.28395M0 0M1170.8856 838.28395L1169.4304 835.93898L1166.8224 832.26650L1164.6974 829.54775L1163.4266 828.10782L1161.3970 826.14650L1159.8956 824.87708L1159.2520 824.40521M0 0M1157.6443 823.30043L1154.9338 821.78589L1151.5275 820.41089L1148.9827 819.66145L1145.9862 819.01628L1143.4340 818.72715L1140.6215 818.66465L1135.6403 818.96375M0 0M1128.1273 819.48473L1125.5029 819.60052L1121.1348 819.38818L1119.1494 819.05065M0 0M1117.2246 818.68414L1115.3189 818.27574M0 0M1113.2186 817.59815L1112.2065 817.24992L1110.3317 816.43122M0 0M1108.6166 815.68226L1106.6527 814.61544M0 0M1101.5210 810.84923L1099.4512 808.88162L1098.0299 807.33930L1094.0105 802.50000M0 0M1092.8603 801.02114L1091.0630 798.49514L1089.7451 796.41109L1088.2675 793.94833L1087.8970 793.26037M0 0M1086.3853 790.29779L1085.9163 789.33746L1083.5301 783.44945L1082.1773 779.94457L1081.0421 776.07864L1080.6995 774.72726M0 0M1080.2699 772.91039L1080.0615 771.97293L1079.5853 769.34142M0 0M1078.7165 761.64082L1078.5741 759.93160M0 0M1078.6183 758.06856L1078.7326 757.15414L1078.7422 755.54778L1078.8806 753.60882M0 0M1079.3572 747.53345L1079.3918 747.22221M0 0M1080.0915 740.81855L1080.2914 738.81960M0 0M1080.7899 733.83424L1081.4164 727.56963M0 0M1081.4872 725.69020L1081.4922 720.50008L1081.2467 713.65306M0 0M1080.3763 703.82339L1079.7762 697.15566M0 0M1079.3098 691.97283L1079.0441 689.02079M0 0M1078.6960 687.16487L1077.4579 681.96021L1077.3479 681.66893L1075.5870 678.34808M0 0M1074.6618 676.71520L1071.8271 672.17968L1073.1181 670.88872M0 0M1074.2397 669.30833L1073.9634 667.12977M0 0M1069.2250 661.26803L1069.1075 661.13195L1068.1178 657.99802M0 0M1069.4189 639.51623L1069.4677 639.18483M0 0M1070.8084 630.08747L1070.9593 629.06311L1071.6827 627.13018L1073.9327 620.13018L1075.9445 613.09132L1084.6984 578.82816L1089.4343 562.62644L1092.1091 554.84498M0 0M1095.2430 547.03423L1098.5729 538.76002M0 0M1102.6327 532.82260L1103.5556 532.36112L1103.8578 532.14862L1106.7292 529.40778M0 0M1113.7518 521.00499L1113.7794 520.97739M0 0M1123.7405 439.29864L1123.7362 437.62647L1123.4924 435.18812L1123.4924 434.42820M0 0M1123.4924 432.27977L1123.4924 431.63862M0 0M1129.3516 417.35973L1130.7877 416.87001L1131.5337 416.51193M0 0M1136.3993 414.17645L1137.0377 413.87001L1138.8665 412.82867L1139.7922 412.07095M0 0M1142.9368 408.56887L1143.4412 407.82554M0 0M1149.2669 394.83000L1149.4588 392.99347M0 0M1150.8772 379.41789L1150.9856 378.38013L1150.9849 374.41515M0 0M1147.3440 348.59374L1147.3347 348.24087M0 0M1147.2319 342.41738L1147.2280 341.56118L1146.8847 339.40347M0 0M1145.5421 330.96571L1145.5386 330.94401M0 0M1144.2409 323.75480L1143.9040 321.90133M0 0M1143.2144 316.75576L1143.4829 315.40417L1143.7382 313.35325L1143.9882 310.35325L1143.9863 305.62646L1143.7212 303.02113L1142.9793 299.06418L1142.2241 292.53722L1141.2297 286.81951L1140.2349 278.36289L1139.8863 276.99748L1139.2286 275.92904L1138.9903 270.92713L1138.4903 262.42713L1138.0482 256.08900L1137.8372 251.76738L1137.8769 249.72401M0 0M1135.4146 249.65052L1135.3532 251.84625L1135.5573 256.08655L1136.0103 262.57979L1136.5095 271.06611L1136.7557 276.23684L1136.2607 283.41461L1136.2578 287.33371L1135.2949 290.94877M0 0M1137.7364 292.34609L1138.0203 295.17578L1139.0158 302.14426L1139.2618 304.85059L1139.5052 308.25789L1139.2654 312.63727L1139.5602 315.10706L1140.3718 317.81242L1139.8216 319.10722L1139.0879 321.30820L1138.3726 322.97715L1137.9064 323.95322M0 0M1140.1113 325.05563L1140.6420 323.98946L1141.4245 322.15397L1143.0256 330.96013L1144.7578 341.84509L1144.7582 344.78276L1145.0083 354.28276L1145.2578 359.03275L1145.2578 361.25008L1145.2998 361.57018L1146.3090 365.35300L1147.7806 370.31944M0 0M1148.5078 376.48888L1148.5078 378.18488L1147.7288 385.64167M0 0M1145.4152 398.64208L1142.6731 404.12639M0 0M1128.3789 415.08194L1128.1565 415.15885L1126.7241 416.28004L1124.7165 418.56100L1123.1715 420.88375L1122.1390 422.69453L1121.6390 423.69453L1121.5320 424.00646L1121.2630 425.38761L1121.1467 426.69212M0 0M1121.0079 429.13237L1121.0079 430.54708M0 0M1120.2646 445.40545L1118.7984 451.43435L1118.5137 452.43089M0 0M1117.4434 456.17680L1117.3057 456.65881L1116.7748 459.79586L1116.2581 463.27011L1116.4457 464.22380M0 0M1118.2438 469.43330L1118.4665 469.93914L1119.2934 471.17947M0 0M1126.1810 485.89140L1126.6217 488.53532M0 0M1124.6378 504.68597L1123.4962 506.51255L1122.0730 508.17292L1119.3041 511.15483L1119.0500 511.56752L1118.9844 511.86097L1116.8346 514.40887L1112.6131 518.63038M0 0M1111.3303 520.00152L1110.5590 520.89861M0 0M1085.5178 567.17442L1082.2966 578.19262L1081.4129 581.65167M0 0M1077.2746 597.85021L1076.9487 599.12575M0 0M1073.9180 610.98921L1073.8112 611.40717M0 0M1068.4711 628.91039L1068.3795 629.53188M0 0M1067.3826 636.29656L1067.2367 637.28646M0 0M1066.7967 640.27183L1065.4065 649.70511M0 0M1065.3439 657.46356L1065.9889 659.50601M0 0M1067.8051 663.42456L1071.5643 667.77731L1071.6923 668.80135L1070.4667 670.02691L1069.5008 668.51428L1066.3498 664.22891M0 0M1063.7902 660.74782L1062.2222 658.61538M0 0M1059.1977 654.50206L1057.0008 651.51427M0 0M1089.9267 500.64859L1095.1767 485.14859M0 0M1090.7174 498.31400L1091.2501 498.25008L1092.0001 498.25008L1092.7501 497.25008L1094.2501 493.75008L1093.0001 493.75008L1092.3007 493.63964M0 0M1089.8108 493.24650L1088.3680 493.01870M0 0M1128.8962 467.28098L1129.2501 466.75008L1129.2501 466.00008L1128.7501 464.75008L1127.2501 461.50008L1127.0001 460.25008L1125.7501 457.25008L1125.5001 454.75008M0 0M1054.6665 653.69626L1059.7942 659.50673L1055.0181 652.97216M0 0M1052.8164 655.31917L1060.2504 663.79390L1060.6971 664.30314L1061.2432 664.92571M0 0M1079.0176 751.69066L1079.0550 751.16696L1079.0935 750.62798L1079.1811 749.40163M0 0M1124.5213 474.54244L1124.0337 473.81102L1123.7710 473.51424L1123.2610 472.52806L1121.4828 469.98472L1122.0930 470.89292L1123.2501 470.25008L1126.6843 468.83602M0 0M1083.8217 498.60726L1084.0758 497.84514L1086.5976 490.60268M0 0M1088.9245 491.40503L1086.1587 499.38626L1086.3641 498.83640L1087.9832 498.64210L1087.5736 499.85158L1092.8236 484.35157M0 0M1093.9856 488.66513L1094.7501 488.75008L1095.7501 488.75008M0 0M1094.2501 493.75008L1095.7501 488.75008L1099.2501 480.50008M0 0M993.84387 763.28133L999.62512 758.93758L999.53137 758.15633L1001.9689 755.71883L1005.3439 753.12508L1009.1876 750.06258L1014.5001 746.43758L1019.2814 742.62508L1022.8439 739.40633L1024.0001 738.12508L1024.0001 738.00008L1025.2501 736.75008L1033.7729 733.34097M0 0M999.62512 758.93758L1000.4689 759.21883L1001.9689 758.59383L1011.0314 753.31258L1017.1251 748.87508L1021.7501 744.96883L1024.0001 742.58588L1024.0001 742.58341L1028.5001 737.75008L1031.7501 736.25008L1032.8003 736.64390M0 0M1097.4689 831.84383L1094.8439 826.87508L1103.9376 822.15633L1105.9376 821.18758L1107.6564 824.59383L1107.2501 825.78133L1097.8439 830.46883L1097.4689 831.84383L1097.1251 832.78133L1096.5626 833.46883L1095.4689 834.34383L1091.8751 836.12508L1080.2501 838.03133M0 0M1107.2501 825.78133L1110.8439 824.81258L1112.5626 823.93758L1113.7814 821.96883L1114.3439 820.93758L1114.4785 820.63633M0 0"
		      style="stroke: rgb(0, 0, 0); stroke-width: 1.05; stroke-linecap: round; stroke-linejoin: round; fill: none; visibility: visible;"/>
	</g>
	
	<g id="l______frame">
		<path pen-id="h018"
		      d="M729.56133 246.31954L719.09520 246.31954L719.09520 256.78567M0 0M1545.9196 838.28395L1556.3857 838.28395L1556.3857 827.81782M0 0"
		      style="stroke: rgb(0, 0, 0); stroke-width: 0.75; stroke-linecap: round; stroke-linejoin: round; fill: none; visibility: visible;"/>
	</g>
</svg>